<svg width="71" height="37" viewBox="0 0 71 37" fill="none" xmlns="http://www.w3.org/2000/svg">
<path d="M70.1951 27.9858C70.5877 28.3743 70.591 29.0074 70.2026 29.4L63.8724 35.7975C63.4839 36.1901 62.8508 36.1935 62.4582 35.805C62.0656 35.4166 62.0623 34.7834 62.4507 34.3908L68.0775 28.7041L62.3908 23.0773C61.9982 22.6888 61.9949 22.0557 62.3833 21.6631C62.7718 21.2705 63.4049 21.2672 63.7975 21.6556L70.1951 27.9858ZM2.50524 0.637024C5.61703 8.62547 14.3169 15.4493 26.4049 20.2633C38.4506 25.0604 53.6689 27.7804 69.4864 27.6967L69.497 29.6966C53.4631 29.7815 37.9844 27.0275 25.6649 22.1213C13.3877 17.232 4.0541 10.1233 0.641635 1.36297L2.50524 0.637024Z" fill="white"/>
</svg>
