<svg width="68" height="40" viewBox="0 0 68 40" fill="none" xmlns="http://www.w3.org/2000/svg">
<path d="M0.249797 32.3388C-0.115376 32.7531 -0.0755367 33.385 0.33879 33.7502L7.09058 39.7011C7.50491 40.0663 8.13682 40.0264 8.50199 39.6121C8.86717 39.1978 8.82733 38.5659 8.41301 38.2007L2.41141 32.911L7.7011 26.9094C8.06628 26.4951 8.02644 25.8632 7.61211 25.498C7.19779 25.1328 6.56588 25.1727 6.2007 25.587L0.249797 32.3388ZM66.0486 0.692175C63.4254 8.79999 55.1655 16.139 43.4097 21.7213C31.6958 27.2837 16.6982 31.0083 0.937078 32.002L1.06292 33.998C17.0382 32.9908 32.2906 29.2153 44.2676 23.528C56.2027 17.8605 65.0746 10.2 67.9514 1.30781L66.0486 0.692175Z" fill="white"/>
</svg>
