<svg width="164" height="297" viewBox="0 0 164 297" fill="none" xmlns="http://www.w3.org/2000/svg">
<path fill-rule="evenodd" clip-rule="evenodd" d="M115.003 286.492C115.605 284.064 114.719 282.127 112.177 280.697C111.958 280.119 107.044 278.246 103.139 275.496C99.6316 273.026 97.0872 269.634 96.9805 269.446C96.9805 269.446 96.1918 267.615 96.1019 266.788C95.6707 262.823 95.9201 260.225 95.6538 258.991C97.4479 258.756 101.859 142.456 101.145 138.601C102.314 138.345 103.553 138.075 104.667 137.417C104.755 137.394 104.609 137.137 104.613 137.088C107.408 131.613 103.121 112.994 100.435 107.839C102.568 107.784 105.378 107.494 106.699 105.716C107.324 105.51 107.719 105.152 108.022 104.578C108.372 104.03 108.696 103.455 108.988 102.866C110.409 99.9185 111.286 96.6456 110.812 93.3981C110.903 93.3695 111.368 93.3666 111.391 93.2366C111.437 92.4382 111.29 91.7347 111.05 90.9807C108.608 82.4874 105.67 74.1255 101.786 66.1295C99.8395 61.8499 95.8126 60.2881 91.6401 58.6815C89.6328 57.8942 87.6247 56.9857 85.5298 56.4701C85.5033 56.3238 85.6285 55.8787 85.3539 55.915C85.0148 55.9856 85.0817 56.5298 84.956 56.8351C80.1119 52.877 83.1838 50.8373 80.2629 48.6696C77.2405 47.1036 73.5546 47.04 70.2222 47.3789C68.9929 47.4144 68.0092 47.9676 67.7193 49.2027C66.6625 51.7585 64.1863 53.6395 61.485 54.2162C61.2617 53.8196 60.648 52.6821 60.3043 53.0412C56.4029 53.1741 50.4876 54.6037 46.8359 55.6732C43.1701 56.6077 39.4616 58.3138 38.5025 62.2896C36.7623 69.3744 39.5309 98.4907 44.0721 104.098L44.2197 104.1C45.0248 104.923 46.119 105.526 47.359 105.93C47.3312 108.551 46.5034 111.11 46.0915 113.674C45.164 118.324 44.4512 122.978 43.418 127.652C43.4135 128.173 41.4478 135.299 43.3857 133.871C43.7857 134.067 44.2757 134.281 44.7065 134.464C42.6476 139.148 41.7055 146.705 41.8514 152.491C41.8879 155.937 41.7451 158.955 40.9708 162.484C35.242 192.381 30.191 259.253 30.0722 260.147C29.9631 261.001 30.688 265.639 30.0722 266.863C29.5258 267.949 27.1949 267.307 26.749 267.726C25.591 269.609 26.1212 270.808 25.1714 272.688C24.6843 273.123 23.5952 274.074 23.2379 274.743C22.5146 275.439 10.5356 283.285 11.0211 284.475C11.0211 284.475 10.9665 285.047 10.9481 285.171C9.92686 291.102 11.6275 291.053 17.1297 291.925C25.1674 293.341 31.1745 290.618 37.9674 286.98C40.2247 285.46 43.4331 282.559 42.3888 279.123C42.36 278.913 41.7405 275.299 41.4949 273.464C41.4949 273.464 42.1606 271.995 39.5841 272.178C40.0078 271.714 40.9386 265.7 40.6211 264.904C40.4194 262.855 40.7325 260.995 40.6334 258.885C41.7127 258.965 60.6617 169.295 72.5472 163.723C72.6207 164.318 72.4781 165.427 73.2701 165.538C76.9464 194.166 85.7855 258.3 86.1913 258.412C85.5822 261.682 85.6006 269.26 85.5893 272.506C85.4961 272.593 85.0682 272.974 84.9993 273.067C84.9849 273.043 84.7063 273.32 84.692 273.328L84.6543 273.241C83.4023 276.059 81.5776 278.962 83.1904 281.723C81.9934 281.636 82.1856 283.936 82.132 284.994C82.8138 287.064 102.195 292.65 106.526 292.915C107.949 293.163 114.576 291.059 115.851 290.757C117.504 290.448 115.883 287.383 115.003 286.492Z" fill="white"/>
<path fill-rule="evenodd" clip-rule="evenodd" d="M68.5257 48.507C69.153 48.4875 69.2728 49.2754 68.844 49.6021L68.8263 49.615C68.4607 49.8739 68.2892 50.1053 68.0908 50.5183C67.1235 53.0737 64.3956 54.5393 61.7276 53.9966C62.6543 55.722 63.2766 57.3919 64.2043 59.0882C68.4756 67.8706 82.5033 70.7277 84.181 58.6776C81.6106 58.1819 80.0873 52.4125 81.7366 50.6913L81.7812 50.9008C82.2566 53.1605 82.5818 55.474 84.298 57.1779C84.3502 57.1931 84.4002 57.1978 84.4494 57.1978C84.5148 56.8884 84.5902 56.5824 84.684 56.2823C84.9124 55.5501 86.0556 55.6878 86.0235 56.4799C89.4464 57.521 92.7358 58.9955 96.0097 60.4201C98.7316 61.6052 100.957 63.725 102.225 66.4095C105.78 73.7525 108.494 81.5038 110.861 89.3015C111.019 90.3552 112.789 94.2716 111.361 94.6481C111.711 97.8743 110.816 101.138 109.432 104.035C108.79 105.123 108.337 106.632 107.047 107.086C105.708 108.765 103.259 109.201 101.22 109.319C103.962 115.762 107.688 132.174 105.168 138.576C105.392 139.627 102.489 140.125 101.712 140.365C102.338 144.1 102.201 147.947 101.931 151.708C99.4029 183.79 98.9231 216.048 101.583 248.138C101.74 250.138 101.908 252.138 102.087 254.137L102.195 255.336C102.336 256.932 102.456 258.522 102.42 260.13C102.408 260.689 101.944 261.024 101.481 261.053C99.9236 262.044 97.8323 262.053 96.0311 262.292C96.3493 264.025 96.5275 266.729 97.0843 268.187C98.2434 267.885 98.9904 268.964 97.8352 269.573C99.2572 270.36 99.9888 271.868 101.127 272.926C104.254 271.659 104.836 273.553 102.281 273.984C102.976 274.563 103.713 275.098 104.475 275.606L104.53 275.598C105.431 275.462 107.13 274.718 107.557 275.703C107.749 276.416 106.866 276.643 106.227 276.73C106.795 277.086 107.363 277.441 107.933 277.796C108.431 277.577 108.924 277.304 109.432 277.129C110.682 276.851 110.79 278.47 109.159 278.561C110.181 279.315 111.591 278.881 112.244 279.944C114.634 280.907 115.764 283.816 115.206 286.14C116.045 286.885 116.634 288.002 116.702 289.124C116.864 290.326 115.906 291.456 114.608 291.773C113.145 292.259 111.662 292.702 110.182 293.119L110.027 293.172C108.808 293.587 107.477 293.958 106.209 293.886C98.6885 293.438 88.6605 290.355 82.6415 286.519C81.1402 285.392 80.8777 282.607 82.9438 281.716C81.9917 279.993 82.4466 278.741 82.8502 276.865C83.1305 275.641 83.511 274.385 84.1998 273.253C84.2609 273.153 84.4079 273.183 84.416 273.282C84.5062 274.562 84.3865 275.872 84.291 277.161L84.2805 277.304C84.1949 278.493 84.0019 278.931 84.325 280.057C85.0986 282.929 92.5558 284.363 95.4863 285.548C97.7868 286.259 100.122 286.896 102.491 287.456L102.664 287.494C104.664 287.933 106.722 288.597 108.828 288.252C109.92 287.459 111.559 287.682 112.632 286.775C114.251 285.031 112.978 282.473 111.844 280.888C110.747 281.237 109.81 280.298 109.003 279.801L108.973 279.782C108.148 279.262 107.326 279.627 106.5 279.107L106.314 279.143C103.281 279.72 100.932 280.378 105.77 278.651C104.973 278.154 104.174 277.652 103.4 277.125C101.811 277.316 100.071 278.149 98.5938 278.225C99.5876 277.301 100.943 276.789 102.221 276.281C101.477 275.717 100.769 275.114 100.136 274.45L99.5316 274.601C95.8163 275.521 94.3559 275.788 99.3576 273.542C98.3739 272.452 98.2141 270.837 97.1326 269.812C95.3933 270.176 93.7951 270.939 92.3786 271.925C91.8057 272.334 91.3742 272.846 90.9205 273.358C88.7706 276.119 85.4399 276.545 84.4224 272.964C84.4048 272.89 84.5202 272.845 84.5527 272.907L84.5564 272.916C85.0431 274.015 86.6133 274.907 87.9249 274.224L87.9645 274.202C89.2471 273.535 89.8429 272.174 90.8532 271.247C92.2167 270.018 93.9256 269.194 95.689 268.576C95.2615 267.017 95.1172 264.179 95.1658 262.349C92.1968 262.489 89.2084 262.347 86.2918 261.783C86.7591 265.184 86.4519 269.609 86.6667 272.641C86.9771 273.659 85.0885 274.295 84.8877 273.281C84.7767 270 85.0983 265.267 85.5989 261.606L85.3895 261.555C85.1917 261.506 84.9839 261.447 84.8143 261.351C82.9426 261.563 83.4532 256.816 83.1389 255.481C81.0273 226.039 76.5791 196.861 72.799 167.613C72.2748 167.413 72.1817 166.771 72.0951 166.234C67.3316 169.452 66.3823 175.884 64.25 180.869C54.9377 206.683 50.777 233.917 44.3229 260.499L44.3584 260.508C44.3837 260.515 44.3839 260.519 44.331 260.515L44.3188 260.515V260.517C44.7176 260.569 45.0317 260.987 44.7884 261.376C44.0618 262.84 42.0476 262.322 40.7218 262.229C40.8505 264.483 40.3668 269.347 40.6733 271.355C42.3088 271.386 42.4128 273.182 42.6293 274.25L42.6462 274.36C42.9352 276.185 43.9065 279.606 43.1809 281.081C44.3025 282.414 43.4957 284.224 42.332 285.133C41.0859 286.052 39.5349 286.591 38.1263 287.299C31.4966 289.972 25.0826 295.126 16.9584 293.143L16.6047 293.068C10.9107 291.867 9.27478 291.334 10.4056 285.709C9.9412 284.566 9.93811 283.314 10.5915 282.303C11.7568 280.81 13.7146 279.994 15.2724 278.86C17.9111 277.09 20.7194 275.543 23.2967 273.701C23.2009 273.618 23.3339 273.587 23.412 273.601C25.2309 272.18 25.0607 269.719 26.3296 267.964C26.647 267.059 28.2494 266.839 29.3047 266.964C28.975 265.278 30.5856 257.603 30.7901 263.024L30.7901 263.102C30.794 263.939 30.9314 266.733 30.6845 267.28C34.1872 268.348 34.9425 271.707 35.6921 274.419L35.7403 274.432C35.9796 274.494 36.3001 274.544 36.4198 274.778C37.5461 274.064 37.8609 272.657 38.9518 271.9C38.6458 271.661 38.6296 271.205 38.7858 270.852C39.2938 268.993 39.5984 264.261 40.3658 262.184C36.7599 261.645 33.0864 261.371 29.5648 260.392C29.1072 260.841 28.168 260.682 28.2049 259.872C29.2956 242.223 31.1715 224.63 33.5362 207.108C35.4804 190.707 38.9008 174.515 41.2832 158.2L41.3034 155.961C41.3677 149.229 41.5479 142.397 44.0626 136.06C43.8412 135.963 43.6219 135.864 43.4056 135.759C40.6788 136.887 42.8271 130.032 42.9274 128.797C44.2674 121.634 45.8459 114.473 46.8524 107.265C45.7974 106.884 44.8233 106.344 44.0106 105.559C39.0839 101.556 36.2278 69.1378 38.0184 62.6195C38.953 58.5193 42.9139 56.505 46.6889 55.5782L47.2464 55.4209C51.4625 54.2372 55.7518 53.1645 60.1413 52.9009C60.2977 52.7594 60.7574 52.8001 60.8176 52.9181C61.0926 53.0834 61.3536 53.4061 61.5743 53.747C67.6671 53.0481 66.0191 49.0729 68.5257 48.507ZM83.102 281.975C82.249 283.909 83.3824 285.38 85.2827 286.193C91.8633 289.238 99.21 291.685 106.752 292.153C109.053 291.597 111.333 290.679 113.665 290.111L113.765 290.093C114.586 289.942 114.972 289.792 114.901 288.941L114.931 288.596C114.984 287.985 115.028 287.375 114.986 286.763C114.268 288.476 112.121 289.417 110.239 289.763C107.254 291.177 103.911 289.739 100.979 289.133C96.2155 287.688 85.9106 285.416 83.102 281.975ZM41.7598 282.016L41.6613 282.046C40.807 282.31 39.9384 282.633 38.981 282.395C34.704 283.842 30.541 285.483 26.4093 287.192C21.9513 289.323 14.773 291.799 10.9097 286.651C11.4652 289.351 10.6799 290.275 14.3684 290.948C20.221 292.853 24.9235 291.878 29.7799 289.275C33.338 287.548 37.1649 286.176 40.6089 284.299L40.6554 284.267C41.3328 283.784 42.1502 282.903 41.7598 282.016ZM32.8767 270.391C31.76 268.334 28.7549 267.205 26.5201 267.963C26.2926 269.946 26.8818 272.167 25.6202 273.888C26.7373 274.084 27.8508 274.309 28.9627 274.542L29.9802 274.757C30.4796 274.866 31.115 275.053 31.0316 275.582C30.9393 276.166 30.171 275.987 29.6596 275.84L29.4615 275.782C28.0255 275.361 26.5918 274.93 25.1741 274.448C24.4267 275.269 23.4235 275.913 22.4506 276.535L22.8541 276.58C24.2679 276.739 25.6954 276.883 27.0923 277.169C27.7026 277.349 27.571 278.18 26.9465 278.113C25.2787 277.679 23.6154 277.188 21.9191 276.876C21.0899 277.424 20.2646 277.974 19.4335 278.518C21.0682 278.754 22.7101 278.776 24.344 278.915C25.4019 279.012 25.4016 280.455 24.3439 280.372C22.4352 280.197 20.5277 279.634 18.7105 278.993L17.7527 279.622C16.6349 280.355 15.5145 281.086 14.3831 281.802C13.7022 282.235 12.8229 282.646 12.3472 283.273C10.8447 285.695 14.5989 288.01 17.1358 287.972C20.9887 288.012 24.1977 286.016 27.5728 284.82C29.4399 284.359 38.932 279.616 39.7958 280.864C40.3388 280.604 41.0941 280.51 41.4851 280.081C41.5643 278.098 41.1457 276.02 40.7943 274.02C40.7228 273.671 40.5517 273.252 40.5325 272.893C38.9514 273.475 38.5011 275.678 36.4199 275.491C36.0942 276.01 35.091 275.768 34.6384 275.356C34.1458 274.907 34.084 274.275 33.9665 273.712L33.912 273.454C33.691 272.417 33.4261 271.354 32.8767 270.391ZM79.73 102.183L79.4757 102.248C76.8859 102.894 74.1766 103.362 71.5151 103.189C71.055 104.926 71.2948 109.059 69.4235 109.719C68.7841 109.96 67.822 109.764 67.5289 109.113C63.658 109.044 59.76 108.699 55.8889 108.469C52.9749 108.24 49.9515 108.249 47.1464 107.367C47.4862 109.075 47.6033 110.752 47.4131 112.499C46.7587 119.95 44.6046 127.21 43.8826 134.629L43.8493 134.982L43.8284 134.97C43.8284 134.984 43.8274 134.998 43.8263 135.012C44.0367 135.073 44.247 135.136 44.4564 135.201C44.5311 135.163 44.6329 135.2 44.6867 135.272C60.1033 140.058 76.4671 142.137 92.5348 140.03C95.3487 139.68 98.1423 139.188 100.916 138.606C100.892 138.359 101.271 138.294 101.337 138.528C101.953 138.42 102.568 138.303 103.18 138.224C103.107 138.016 103.094 137.791 103.169 137.588C104.364 134.012 103.818 129.935 103.441 126.226C102.961 120.531 101.764 114.946 100.797 109.328C96.2182 109.121 91.6671 108.375 87.0666 108.468C86.5819 109.722 84.8925 110.775 83.5698 110.058C82.6359 109.555 82.3593 108.457 81.9845 107.55C81.2434 105.757 80.4867 103.97 79.73 102.183ZM60.3305 53.0709C55.5226 54.4885 50.5968 55.5009 45.8328 57.0743C41.8734 58.059 39.1706 60.5385 39.0037 64.7671C38.677 73.8254 39.672 82.9294 41.1738 91.8561L41.2522 92.2592C42.0854 96.5613 42.8323 100.939 44.4059 105.039C46.7031 106.105 49.3114 106.409 51.8246 106.532C55.4921 106.719 59.1594 106.91 62.8238 107.149L65.6968 107.335C66.5304 107.389 67.6894 107.247 68.3158 107.894C68.3713 107.985 68.4843 107.974 68.5701 108.03L68.5869 108.042C68.6783 108.104 68.7704 108.255 68.9022 108.226C69.1166 108.159 69.1988 107.733 69.2491 107.529L69.2538 107.511C69.5328 106.421 69.735 105.308 69.9927 104.212C70.5801 102.057 70.8332 99.7778 71.7259 97.7144C70.4479 96.9003 69.2442 95.9696 68.2119 94.8653L66.9673 94.4278C63.9896 93.385 60.9784 92.3746 57.8749 91.7496C57.8005 92.4295 56.8229 92.8183 56.4583 92.1067C55.8539 90.2939 55.7419 88.3257 55.3251 86.4573C54.3791 80.8829 53.2551 75.3288 52.6008 69.71C54.4047 74.6865 55.3394 80.7945 56.7181 86.1729C56.782 86.1358 56.8704 86.1574 56.8731 86.2454C61.7545 84.4029 67.174 84.4779 71.9913 86.4332C73.198 86.9163 74.4236 87.3501 75.6239 87.8483C76.0339 88.0793 76.8505 88.0652 76.9882 88.5704C77.1356 88.2275 77.3338 87.9064 77.597 87.6898C77.6792 87.5208 78.6122 87.2192 78.7034 87.5535C84.1761 88.3032 89.4972 90.6796 95.1284 90.2784C94.462 87.8503 94.5409 85.2281 94.4962 82.7205L94.5098 82.4381C94.6257 79.9678 94.7095 76.9103 95.5485 74.8774C95.0116 79.9952 95.4015 85.1215 96.0567 90.1917C100.028 89.6803 98.1996 91.947 95.5542 91.8619C90.2156 92.2458 85.2887 89.8892 80.3755 88.1719C77.6918 87.1011 77.3877 88.008 77.5073 90.5529C77.5098 93.8665 79.0132 96.8907 80.3751 99.8305L80.9869 101.204C82.0038 103.488 83.0067 105.759 83.9947 108.071C88.3113 106.642 93.1711 107.426 97.6429 107.686C101.055 108.114 103.505 107.962 106.392 105.992C107.433 104.007 108.805 102.124 109.341 99.8841C109.964 97.8315 110.171 95.6815 110.352 93.5543L110.189 92.9592C108.085 85.3223 105.757 77.7227 102.575 70.4487L102.403 70.0479C101.325 67.5288 100.229 64.8853 98.0469 63.1208C94.3847 60.4219 89.8556 59.2249 86.0059 56.8234L85.9813 56.9991C85.5907 59.7539 84.9158 62.6096 83.1493 64.826C79.8853 68.8263 73.7224 68.9388 69.5455 66.3407C65.2001 63.9428 62.5932 59.478 61.3248 54.8111L61.31 54.7598C61.1912 54.3439 60.8607 53.0846 60.3305 53.0709ZM72.1311 97.9668C72.1284 99.4338 71.8384 100.88 71.6422 102.328C73.9012 101.883 76.1535 101.573 78.3754 100.971C76.2111 100.155 74.1079 99.1717 72.1311 97.9668ZM66.6916 86.135C63.3975 85.4914 60.025 85.8764 56.7678 86.3948C57.1218 88.0369 57.526 89.6644 57.864 91.3087C59.0304 91.2554 70.0954 93.2111 68.8466 94.7811C70.4799 95.6529 72.0272 96.6777 73.6531 97.5684C75.2883 98.4641 76.9907 99.234 78.747 99.8594L78.6544 99.6536C77.1428 96.2831 75.7306 92.4903 76.8953 88.8067C75.3292 89.4341 73.1913 88.0864 71.6739 87.5822C70.0632 86.937 68.4043 86.428 66.6916 86.135ZM42.9769 73.0839C42.9879 72.469 44.8907 74.2321 45.139 74.4152L45.2891 74.5508C47.1151 76.2047 48.9189 78.0242 49.9363 80.2936C50.0107 82.524 46.6803 77.1209 46.2186 76.7908C45.2112 75.4967 43.9839 74.3727 42.9769 73.0839ZM95.6312 78.3339C95.1163 78.503 96.5214 76.7603 97.0694 76.8875C97.2874 76.8557 97.4771 77.1712 97.2351 77.2796L97.1149 77.3325C96.5526 77.5759 95.9778 77.7838 95.6312 78.3339Z" fill="black"/>
<path fill-rule="evenodd" clip-rule="evenodd" d="M94.4496 20.2047C92.3959 7.83244 76.7151 5.60179 66.497 8.20586C66.3087 5.82603 64.8035 3.72318 62.9253 2.33996C54.9467 -3.37904 45.5008 6.33067 47.3919 14.6989C47.7311 17.2339 49.7655 20.1267 52.6118 19.6929C49.0341 26.4373 47.636 40.0373 55.5188 44.2413C56.2793 44.7804 56.4055 45.8754 56.9908 46.5774C57.941 47.7097 62.0004 49.152 64.1965 47.9962C64.8866 48.6278 65.6827 49.2423 66.6135 49.4609C71.422 53.2949 78.4492 54.16 84.3044 52.578C87.9119 51.9682 91.6515 50.3472 93.5074 47.0355C95.08 44.515 94.3553 41.5618 93.6342 38.8941C93.3227 37.4266 93.1199 35.9473 92.9951 34.4556C93.2508 34.1582 93.2651 33.7452 93.3289 33.3691C93.6058 32.036 94.2109 30.7989 94.5135 29.4696C95.1907 26.4522 95.0731 23.2284 94.4496 20.2047" fill="white"/>
<path fill-rule="evenodd" clip-rule="evenodd" d="M94.2851 26.5057C94.1665 27.9975 93.5317 29.3398 93.0003 30.7301C93.0583 29.9075 93.031 29.0514 93.0888 28.1972C92.4708 22.8484 85.1685 21.4432 82.3337 17.3987C82.4411 17.1703 82.4797 15.1282 82.057 15.7025C80.4173 22.8496 70.6717 26.4352 63.9993 26.449C63.4947 26.0348 62.4939 26.4724 62.6829 27.2981C63.6807 31.6553 63.8992 36.2132 63.2584 40.6406C62.9565 42.2039 62.9056 44.085 61.9639 45.4321C60.9645 46.379 62.166 46.455 62.8273 46.2412C63.0117 46.4994 63.2062 46.7501 63.4015 46.9999C62.4517 47.6535 61.0658 47.297 60.0827 46.8619C58.9891 46.2853 58.364 45.168 57.5716 44.2724C57.139 43.405 56.4828 42.9065 55.6393 42.4368C50.9464 39.2596 51.0676 32.2902 51.7413 27.253C53.7043 12.2638 70.4061 5.03137 83.8099 10.2387C91.0487 12.0825 94.4402 19.5376 94.2851 26.5057M50.6271 18.0196C47.7645 15.1799 48.3407 10.2155 50.1401 6.94186C53.7459 0.101872 63.9875 0.324137 65.2138 8.61492C59.9911 10.3971 55.584 14.2186 52.9602 19.044C52.1059 18.953 51.2801 18.574 50.6271 18.0196M94.4495 20.207C92.3959 7.83476 76.7151 5.60411 66.497 8.20828C66.3087 5.82835 64.8036 3.7255 62.9253 2.34218C54.9466 -3.37672 45.5008 6.33299 47.3919 14.7012C47.7311 17.2362 49.7655 20.129 52.6118 19.6952C49.0341 26.4397 47.6361 40.0396 55.5188 44.2436C56.2793 44.7828 56.4055 45.8778 56.9908 46.5797C57.941 47.7121 62.0004 49.1544 64.1965 47.9985C64.7187 48.6366 67.6824 50.5773 67.4663 48.6749C67.2483 48.1624 66.5746 48.0287 66.126 47.7754C65.1833 47.2569 64.3642 46.5263 63.7207 45.6681C65.742 39.9907 65.588 33.6692 64.4556 27.8234C71.2226 27.4843 79.1851 24.5298 82.1699 18.0419C84.1876 22.7634 90.4447 23.371 92.0253 28.6499C92.1206 31.4224 91.5238 34.1539 91.9566 36.9278C92.0836 39.6448 93.5255 42.3437 92.6919 45.0429C90.363 50.9289 81.9793 51.7927 76.4403 51.5466C75.1247 51.4385 74.0328 50.7302 72.9512 50.0578C72.3029 49.7514 71.5313 50.3924 71.9285 51.0767C73.445 53.1846 76.5641 53.3689 78.9593 53.2929C85.1753 52.9258 94.1586 51.0965 94.4812 43.4508C94.2762 40.42 93.0823 37.5194 92.9952 34.4579C93.2508 34.1605 93.2651 33.7475 93.3289 33.3714C93.6058 32.0382 94.211 30.8012 94.5135 29.472C95.1906 26.4545 95.0732 23.2308 94.4495 20.207" fill="black"/>
<path fill-rule="evenodd" clip-rule="evenodd" d="M76.0522 38.6682C77.8388 38.4523 79.5705 38.9971 81.317 39.2717C82.2391 39.4166 83.1624 39.5248 84.0955 39.5651C84.2833 39.5732 84.4711 39.578 84.6589 39.5818C84.6764 39.4172 84.7689 39.2659 84.9694 39.1753C85.3804 38.9897 85.7093 38.9061 86.1606 38.924C86.5736 38.9402 86.9882 38.9825 87.3949 39.0567C88.1335 39.1916 88.8754 39.4976 89.4156 40.0294C90.666 41.2599 90.4757 43.2365 89.5095 44.5767C87.5135 47.3462 83.8705 47.4748 80.7504 47.4386L80.4625 47.4349C77.6215 47.3944 73.557 47.8164 72.2663 44.5967C71.7916 43.4127 71.8576 42.0404 72.4387 40.9048C73.1318 39.5504 74.5909 38.8449 76.0522 38.6682ZM84.9264 43.2795L84.9009 43.2805C83.5911 43.3308 82.2814 43.3662 80.9709 43.3892C81.0101 43.7245 81.0501 44.0599 81.0959 44.3944C81.1318 44.6576 81.1703 44.9206 81.2103 45.1832C81.2272 45.2944 81.2894 45.467 81.2719 45.5772L81.2655 45.6208V45.6208C81.3328 45.6511 81.3938 45.6999 81.4393 45.7707C81.4551 45.7953 81.4665 45.82 81.478 45.8446C82.4955 45.8526 83.5904 45.8329 84.6277 45.6487L84.6298 45.6262V45.6262C84.6486 45.4943 84.7037 45.4054 84.7769 45.3445C84.8498 44.9236 84.8432 44.4751 84.8713 44.0575C84.8889 43.798 84.908 43.5388 84.9264 43.2795ZM79.9699 43.407C79.0259 43.423 78.0813 43.4354 77.1375 43.4239L76.709 43.4173V43.4173C76.7994 43.9009 76.8979 44.3828 76.9798 44.8696C77.0651 45.377 76.6168 45.6995 76.2288 45.6864C76.2724 45.6936 76.3159 45.7009 76.3594 45.707C77.5717 45.8778 78.8305 45.8325 80.0607 45.8312C79.9945 45.4463 80.0214 45.0121 80.0115 44.6909L80.0096 44.6412C79.9907 44.2296 79.9775 43.8183 79.9699 43.407ZM73.5572 43.3183C73.5899 43.5698 73.6537 43.8158 73.749 44.045C74.152 45.0129 75.0759 45.4647 76.0535 45.6549C75.8839 45.5966 75.7492 45.4564 75.7152 45.2163C75.6304 44.6194 75.6 44.0125 75.5977 43.4063C74.9164 43.4 74.2305 43.3855 73.5572 43.3183ZM88.4792 43.1116C87.9941 43.2256 87.4305 43.1734 86.9546 43.1949C86.5088 43.2151 86.0627 43.2326 85.6169 43.2506C85.6379 43.5538 85.6584 43.8569 85.6806 44.1599C85.7093 44.5515 85.712 44.9654 85.7873 45.3553C86.6846 45.0503 87.4886 44.5611 88.0918 43.7789C88.242 43.584 88.3766 43.3553 88.4792 43.1116ZM75.8473 40.2565C75.0398 40.4469 74.2757 40.8492 73.865 41.5852C73.6212 42.0219 73.514 42.5395 73.5346 43.0496C74.217 42.9704 74.9112 42.9404 75.602 42.9156C75.6043 42.7917 75.6073 42.6679 75.611 42.5444L75.6216 42.2278C75.6405 41.624 75.6499 40.8657 75.8473 40.2565ZM80.0264 40.3301L79.671 40.2903C78.6837 40.1783 77.697 40.0607 76.7097 40.1281C76.5668 40.1379 76.4217 40.1534 76.2763 40.1746C76.4508 40.8019 76.4362 41.5386 76.5091 42.1596C76.5373 42.3996 76.5728 42.6378 76.6122 42.8749L76.7835 42.867V42.867C77.8429 42.8098 78.9034 42.7746 79.9636 42.7327C79.9635 42.5344 79.9646 42.336 79.9678 42.1375L79.9717 41.939C79.9838 41.4321 79.9509 40.861 80.0264 40.3301ZM84.9841 40.2496C83.9501 40.4159 82.8814 40.4512 81.8657 40.4525C81.46 40.453 81.0545 40.4282 80.6492 40.3924C80.6757 40.6073 80.6894 40.8248 80.7092 41.0367C80.7493 41.465 80.795 41.8927 80.8447 42.32L80.8891 42.6938V42.6938C82.1922 42.635 83.4953 42.5713 84.7981 42.5055L84.982 42.4956V42.4956L85.0335 41.7771C85.0686 41.298 85.1072 40.819 85.1617 40.3421L85.1208 40.3274V40.3274C85.0728 40.3078 85.0272 40.2807 84.9841 40.2496ZM85.4331 40.428C85.4901 41.1054 85.5216 41.7856 85.5635 42.4642L86.4224 42.4185C86.5656 42.4107 86.7087 42.4028 86.8518 42.3946C87.4084 42.3626 88.1236 42.1947 88.6738 42.3513C88.7158 41.8531 88.5729 41.3676 88.1214 41.0329C87.3289 40.4449 86.3197 40.6543 85.4331 40.428ZM82.4986 34.3721C83.7776 33.6425 86.9866 32.8968 87.1899 35.1896C87.2833 36.2446 86.4959 37.1188 85.5764 37.5089L85.5418 37.5233C84.6794 37.8765 83.1508 38.2753 82.4045 37.5095C81.7834 36.8721 82.6072 35.7292 83.3791 36.2514C83.7757 36.5196 84.6107 36.322 85.0533 36.1943L85.081 36.1863C85.5586 36.0465 86.1954 35.5989 85.9979 35.0131C85.8231 34.4948 85.0794 34.4002 84.6137 34.3834C83.9184 34.3585 83.2418 34.5193 82.5529 34.5717C82.4438 34.58 82.4102 34.4226 82.4986 34.3721ZM87.7966 30.6854C89.5325 30.6045 90.6123 32.4924 90.2132 34.0393C90.1442 34.3062 89.8444 34.5683 89.5551 34.5383L89.4822 34.5316C89.4452 34.528 89.408 34.5234 89.3738 34.514C89.0991 34.4382 88.8528 34.1535 88.8728 33.8585L88.8781 33.7725C88.9186 33.0418 88.8391 32.1998 87.9672 32.0229C87.2278 31.8727 86.815 32.5817 86.8062 33.2343C86.8046 33.3501 86.6739 33.431 86.571 33.3687C86.0365 33.0447 85.9439 32.4001 86.1481 31.845C86.4069 31.1417 87.0545 30.72 87.7966 30.6854ZM74.9148 31.0903C76.178 30.6705 77.5409 31.3413 78.1526 32.4537C78.3672 32.5156 78.5814 32.6804 78.5516 32.9326C78.5086 33.2956 78.4438 33.5244 78.1911 33.7996C77.796 34.2301 77.056 34.01 76.8917 33.48L76.8848 33.4561C76.6982 32.771 75.9412 32.319 75.2515 32.5588C74.4459 32.8389 74.4693 33.6864 73.9042 34.1802C73.8378 34.2382 73.7582 34.2474 73.6785 34.2091C73.0783 33.9202 73.1862 33.0507 73.4002 32.553C73.6808 31.8999 74.2263 31.319 74.9148 31.0903ZM73.1944 27.2692C74.218 26.2288 76.8873 25.222 77.5876 27.1433C77.721 27.5093 77.437 28.0027 77.0545 28.0786C76.4281 28.2027 75.8724 27.9319 75.2502 27.9805C74.7465 28.02 74.2212 28.1877 73.8185 28.4985C72.7031 29.3593 72.4578 30.8153 71.6806 31.911C71.6428 31.9643 71.5693 31.9419 71.5623 31.879C71.3854 30.2839 72.0732 28.4087 73.1944 27.2692ZM86.5444 26.245C87.2237 26.006 87.9929 26.0265 88.6758 26.2385C89.3636 26.4521 89.9951 26.8578 90.4816 27.3879C90.7023 27.6285 90.9066 27.8941 91.0704 28.1768C91.1575 28.3266 91.249 28.6361 91.3479 28.8203C91.883 29.1281 92.1117 29.8293 91.6326 30.3283L91.611 30.3501L91.5469 30.4135C91.2894 30.6674 90.9011 30.7774 90.5496 30.676C89.7629 30.4493 89.6673 29.8321 89.395 29.177C89.2151 28.7443 88.9069 28.3615 88.5333 28.0802C87.6503 27.4158 86.2024 27.2042 85.1392 27.5173C85.0826 27.534 85.0161 27.4621 85.0565 27.41C85.2579 27.1501 85.374 26.9367 85.6437 26.727C85.9175 26.5142 86.2163 26.3605 86.5444 26.245Z" fill="black"/>
<path fill-rule="evenodd" clip-rule="evenodd" d="M96.2278 26.3927C96.142 26.3785 96.0562 26.3651 95.9703 26.3526C95.9033 26.3147 95.8246 26.2855 95.7331 26.268C95.5241 26.2151 95.3166 26.1795 95.1094 26.1603C92.1358 25.4937 85.2566 26.4402 84.9727 28.9679C84.0258 29.2827 83.2064 29.0008 82.1089 29.0288C81.2735 25.5505 66.8304 26.0414 66.1358 28.1385C66.1332 28.1378 66.1306 28.1371 66.1279 28.1363C65.4605 27.9305 64.4765 27.9802 63.7126 27.9476C62.0815 27.9135 60.4485 28.0583 58.8525 28.401C55.8641 28.8741 51.7854 29.428 53.8639 33.1453C53.8643 33.1459 53.8646 33.1467 53.8651 33.1473L53.8654 33.147C54.2236 33.5127 54.8316 33.2182 54.8542 32.7231C54.1554 30.962 55.7337 30.7505 56.948 30.2445C59.9697 29.1631 63.046 29.0132 66.1711 29.3477C66.4063 29.6234 66.763 29.8639 67.1401 29.9897C69.2296 30.3352 68.1284 31.8791 69.4492 32.1037C69.2065 37.4856 75.7662 40.4233 79.567 36.8854C81.0845 35.4075 81.4463 33.2182 81.7981 31.2448C81.9841 31.2032 82.1024 31.1019 82.1715 30.9677C82.6189 30.5228 82.9 30.1119 83.7847 29.9897C84.6695 29.8676 85.3505 30.1127 85.4427 30.1878C85.4659 30.2344 85.4908 30.2811 85.5198 30.3278C85.5602 30.3975 85.6152 30.453 85.6778 30.4967C84.8041 35.856 88.9809 39.2453 93.1975 36.4657C95.0297 34.7489 95.4169 32.1206 95.4934 29.7746C95.7417 29.6253 95.899 29.336 95.813 28.9722C95.6945 28.4708 95.9724 28.0366 96.4149 27.8186C96.9899 27.5355 96.8881 26.5017 96.2278 26.3927M78.1095 28.9353C77.5861 28.8206 77.3626 29.6244 77.8877 29.7394C78.2595 29.8208 78.5746 30.0076 78.7875 30.324L78.8099 30.3584C79.0956 30.8112 79.818 30.3932 79.5303 29.9374C79.2067 29.4246 78.7037 29.0654 78.1095 28.9353ZM93.4387 28.4369C93.2542 28.3074 92.975 28.4035 92.8679 28.5865C92.75 28.7879 92.8273 29.0122 93.0001 29.144L93.0177 29.1569C93.1762 29.2682 93.3306 29.4676 93.3499 29.672L93.3517 29.6976C93.3724 30.2325 94.2069 30.2352 94.1861 29.6976C94.1657 29.1717 93.86 28.7323 93.4387 28.4369Z" fill="black"/>
</svg>
