<svg width="366" height="244" viewBox="0 0 366 244" fill="none" xmlns="http://www.w3.org/2000/svg">
<path d="M222.853 126.88L227.733 127.693L229.36 129.32H230.173" stroke="white" stroke-width="0.5"/>
<path d="M219.6 124.44H222.04L228.547 125.253L230.173 126.88" stroke="white" stroke-width="0.5"/>
<path d="M184.627 75.6401L183.813 81.3333C183 79.4356 181.048 73.8507 179.747 73.2001C178.445 72.5494 176.493 76.9956 175.68 79.7067C174.867 76.9956 172.915 72.5494 171.613 73.2001C170.312 73.8507 168.36 79.4356 167.547 82.1467C167.818 80.52 168.035 77.104 166.733 76.4534" stroke="white" stroke-width="0.5"/>
<path d="M130.133 120.373L132.573 118.747L138.5 118.05L144.773 118.747L146.98 120.257" stroke="white" stroke-width="0.5"/>
<path d="M126.88 136.64C127.055 135.236 127.208 132.992 126.941 131.76M126.067 130.947C126.526 130.717 126.796 131.088 126.941 131.76M126.941 131.76C127.734 130.404 129.808 127.856 131.76 128.507C133.929 128.507 137.941 129.808 136.64 135.013" stroke="white" stroke-width="0.5"/>
<path d="M128.507 112.647L130.947 111.833L138.267 111.427L145.587 111.833L148.027 113.053" stroke="white" stroke-width="0.5"/>
<path d="M156.973 135.013C157.787 133.929 161.691 132.248 170.8 134.2" stroke="white" stroke-width="0.5"/>
<path d="M171.613 142.333L175.68 141.52L187.067 143.147" stroke="white" stroke-width="0.5"/>
<path d="M154.533 149.653C157.516 148.027 165.595 145.749 174.053 149.653" stroke="white" stroke-width="0.5"/>
<path d="M156.973 143.147C158.329 142.062 163.155 140.381 171.613 142.333" stroke="white" stroke-width="0.5"/>
<path d="M154.533 141.52L152.907 144.773V159.413" stroke="white" stroke-width="0.5"/>
<path d="M122 139.08L126.067 136.64L137.453 135.013L150.467 136.64L154.533 139.08" stroke="white" stroke-width="0.5"/>
<path d="M176.493 129.32H178.12L187.067 130.133" stroke="white" stroke-width="0.5"/>
<path d="M170.8 108.987L175.68 108.173L183.813 108.987" stroke="white" stroke-width="0.5"/>
<path d="M189.507 115.493L193.573 113.053L200.893 112.24L208.213 113.053L210.653 115.493" stroke="white" stroke-width="0.5"/>
<path d="M189.507 128.507L191.133 130.947C191.947 129.591 194.061 126.88 196.013 126.88C198.453 126.88 199.267 126.88 201.707 129.32C202.52 128.236 204.635 126.067 206.587 126.067C209.027 126.067 210.653 128.507 210.653 129.32C210.653 129.971 211.196 129.049 211.467 128.507" stroke="white" stroke-width="0.5"/>
<path d="M186.253 139.893L188.693 139.08L191.947 138.267L196.827 137.453L201.707 136.64L206.587 137.453L211.467 138.267L213.093 139.08L214.72 139.893" stroke="white" stroke-width="0.5"/>
<path d="M223.667 145.587L224.48 148.027L225.293 149.653H226.92C227.462 150.196 228.384 151.768 227.733 153.72L228.547 155.347V157.787L229.36 160.227V161.04L232.419 161.805L232.613 161.853" stroke="white" stroke-width="0.5"/>
<path d="M185.44 135.827L190.32 133.387L201.707 132.573L211.467 133.387L216.347 135.827" stroke="white" stroke-width="0.5"/>
<path d="M172.427 45.5467C173.511 44.7333 176.331 43.5947 178.933 45.5467" stroke="white" stroke-width="0.5"/>
<path d="M229.36 132.573L228.547 133.387V137.453L229.36 142.333H230.987C231.529 142.604 232.451 143.797 231.8 146.4V148.027L233.427 148.84L232.613 149.653L231.8 152.907L232.613 159.413V162.667L235.867 163.48C234.511 164.022 232.125 165.432 233.427 166.733" stroke="white" stroke-width="0.5"/>
<path d="M200.08 61.8134L209.84 92.72" stroke="white" stroke-opacity="0.2" stroke-width="0.5"/>
<path d="M172.427 54.4934C172.698 53.9511 173.565 52.8667 174.867 52.8667C176.493 52.8667 178.12 52.8667 178.933 54.4934" stroke="white" stroke-width="0.5"/>
<path d="M164.293 82.1467H170.8L174.867 80.52L180.56 82.1467H187.067L188.693 84.5867" stroke="white" stroke-width="0.5"/>
<path d="M211.467 128.507C211.738 127.693 212.605 126.555 213.907 128.507C215.208 130.459 215.533 133.116 215.533 134.2V135.013L216.347 135.827L214.72 137.453L215.533 156.973L217.973 159.413L216.347 161.853V163.48L217.16 164.293L216.347 165.92" stroke="white" stroke-width="0.5"/>
<path d="M158.6 117.933L157.787 117.12L155.347 115.493L156.973 113.867V112.24H158.6L159.413 109.8V106.547L160.227 102.48V100.04L161.04 95.9734V93.5334L161.853 92.72V93.5334V89.4667L161.04 88.6534L159.413 87.84L163.48 85.4C163.48 84.5867 163.643 82.7974 164.293 82.1467C164.944 81.496 165.649 78.08 165.92 76.4534H166.733L172.427 56.12V54.4934L170.8 53.68L171.613 51.24L172.427 50.4267V45.5467L170.8 43.92V43.1067C169.987 42.5645 168.685 40.6667 169.987 37.4134C171.288 35.4614 172.156 34.9734 172.427 34.9734L174.053 32.5334L174.867 29.28L174.053 28.4667V27.6534L174.867 26.84M174.867 26.84V21.1467M174.867 26.84C175.138 26.84 177.307 27.6534 175.68 29.28V32.5334L176.493 34.16L178.12 34.9734L179.747 36.6L180.56 38.2267V41.48L179.747 43.1067L178.933 45.5467V50.4267L179.747 52.8667L178.933 53.68V56.12L184.627 75.64H186.253L187.88 82.1467L188.693 84.5867L191.947 87.0267L190.32 88.6534V91.9067M174.867 21.1467L174.053 21.96M174.867 21.1467V19.52M174.867 21.1467L175.68 20.3334" stroke="white" stroke-width="0.5"/>
<path d="M122 139.08L122.813 137.453H123.627V132.573C123.627 132.031 123.789 130.947 124.44 130.947C125.091 130.947 125.253 130.947 125.253 130.947H126.88C126.88 129.591 127.043 127.043 127.693 127.693C128.344 128.344 129.049 126.88 129.32 126.067H130.133H130.947V121.187C130.676 120.916 130.133 119.885 130.133 117.933C130.133 115.981 130.133 116.036 130.133 116.307L129.32 115.493L128.507 113.867L129.32 113.053C127.964 111.698 125.741 107.848 127.693 103.293C129.645 98.7387 133.387 94.8889 135.013 93.5334C135.556 92.9912 136.803 91.2561 137.453 88.6534C138.104 86.0507 137.724 85.9423 137.453 86.2134C136.911 85.9423 136.152 85.0747 137.453 83.7734C137.854 83.3724 138.111 83.1155 138.267 82.96M138.267 82.96V78.8933M138.267 82.96C138.616 82.6109 138.454 82.7725 138.267 82.96ZM138.267 82.96C138.809 83.2311 139.893 83.936 139.893 84.5866C139.893 85.2373 139.351 85.9423 139.08 86.2134V88.6533C139.622 90.28 141.357 94.184 143.96 96.7866C146.563 99.3893 148.298 101.667 148.84 102.48C149.924 104.649 151.443 109.8 148.84 113.053C146.237 116.307 146.671 122.542 147.213 125.253L152.907 130.947L154.533 138.267L153.72 140.707L154.533 141.52L156.973 140.707V135.013C155.889 133.658 153.557 130.621 152.907 129.32C152.256 128.019 152.636 124.982 152.907 123.627C153.449 122.271 155.347 119.235 158.6 117.933C161.853 116.632 163.209 111.969 163.48 109.8V106.547C162.938 106.276 162.179 105.571 163.48 104.92C163.948 104.686 164.15 104.234 164.191 103.701C164.263 102.753 164.293 101.667 164.293 100.853V104.107C164.336 104.63 164.459 104.965 165.107 105.733V106.547V107.36V109.8L167.547 116.307L173.24 119.56L176.493 124.44V128.507C176.222 129.591 175.029 131.923 172.427 132.573C169.173 133.387 171.613 139.893 171.613 142.333" stroke="white" stroke-width="0.5"/>
<path d="M171.613 142.333L172.427 143.96C173.511 145.045 175.355 147.701 174.053 149.653C173.24 150.467 174.867 148.84 174.867 153.72C174.867 157.624 182.458 158.058 186.253 157.787L187.067 143.147V141.52L186.253 139.893V137.453L185.44 135.827L186.253 135.013C186.253 132.573 186.741 127.856 188.693 128.507C190.645 129.157 190.049 120.102 189.507 115.493L187.88 113.053C186.253 112.24 183.163 109.8 183.813 106.547C183.813 103.293 184.898 99.769 185.44 98.4134C185.44 97.6001 186.253 95.3227 189.507 92.7201C192.76 90.1174 194.658 88.3823 195.2 87.8401C195.742 86.7556 196.827 84.0987 196.827 82.1467C196.827 80.1947 197.369 77.5378 197.64 76.4534C197.098 76.1823 196.176 75.3147 196.827 74.0134C197.477 72.7121 198.182 72.929 198.453 73.2001M198.453 73.2001V63.44M198.453 73.2001C198.996 73.2001 200.08 73.3627 200.08 74.0134C200.08 74.664 200.08 75.3689 200.08 75.64L199.267 76.4534C199.538 78.0801 200.405 81.984 201.707 84.5867C203.008 87.1894 206.044 89.4667 207.4 90.28C208.213 90.8222 210.653 93.0454 213.907 97.6C217.16 102.155 216.347 107.089 215.533 108.987C214.991 109.8 213.581 111.589 212.28 112.24C210.979 112.891 210.653 115.222 210.653 116.307V124.44L211.467 127.693C213.364 126.338 217.16 123.139 217.16 121.187C217.16 119.235 217.16 119.289 217.16 119.56C216.347 119.289 215.208 118.421 217.16 117.12M198.453 63.44L196.827 65.0667M198.453 63.44V61.8134M198.453 63.44L200.08 61.8134M217.16 117.12C217.395 116.963 217.16 113.053 217.16 111.427M217.16 117.12C217.702 117.12 218.787 117.283 218.787 117.933C218.787 118.584 218.244 119.289 217.973 119.56V121.187L219.6 124.44C220.142 125.253 221.715 127.043 223.667 127.693C225.619 128.344 226.649 131.218 226.92 132.573C226.649 133.929 225.781 136.64 224.48 136.64C223.179 136.64 223.396 142.604 223.667 145.587M217.16 111.427L216.347 112.24M217.16 111.427V109.8M217.16 111.427L218.787 110.613" stroke="white" stroke-width="0.5"/>
<path d="M191.133 86.2133L196.827 65.0667" stroke="white" stroke-opacity="0.2" stroke-width="0.5"/>
<path d="M216.347 106.547C216.618 106.276 217.485 105.083 218.787 102.48C220.088 99.8774 219.871 96.5156 219.6 95.1601L218.787 94.3467V92.7201L219.6 91.9067M219.6 91.9067V83.7734M219.6 91.9067H220.413L221.227 92.7201V93.5334V94.3467V97.6001L222.04 101.667C223.124 103.836 225.781 108.499 227.733 109.8C229.685 111.101 231.8 113.596 232.613 114.68C233.427 115.222 234.891 116.957 234.24 119.56C233.427 122.813 234.24 123.627 230.173 126.88V129.32C229.902 129.32 229.36 129.971 229.36 132.573M219.6 83.7734L217.973 84.5867M219.6 83.7734L221.227 82.9601M219.6 83.7734V82.1467" stroke="white" stroke-width="0.5"/>
<path d="M186.253 157.787H190.32L201.707 156.16L213.093 156.973L217.973 159.413" stroke="white" stroke-width="0.5"/>
<path d="M187.88 113.053L191.947 109.8L200.08 108.987L209.027 109.8L212.28 112.24" stroke="white" stroke-width="0.5"/>
<path d="M216.347 162.667L235.867 163.48" stroke="white" stroke-width="0.5"/>
<path d="M191.947 157.787L196.827 137.453L201.707 155.347L206.587 138.267L211.467 156.973L213.093 139.08L215.533 156.973" stroke="white" stroke-width="0.5"/>
<path d="M191.947 157.787L188.693 139.08L186.253 157.787" stroke="white" stroke-width="0.5"/>
<path d="M189.507 120.373L193.573 118.204L200.893 117.12L208.213 118.204L210.653 120.373" stroke="white" stroke-width="0.5"/>
<path d="M158.6 112.24L160.227 110.613H163.48M165.107 110.613L170.8 108.987" stroke="white" stroke-width="0.5"/>
<path d="M122 139.08L122.813 139.893L123.627 140.707V143.147L124.44 144.773L125.253 147.213V152.907V162.667" stroke="white" stroke-width="0.5"/>
<path d="M156.973 140.707V143.147C156.16 143.689 154.533 145.099 154.533 146.4C154.533 147.701 154.533 155.076 154.533 158.6" stroke="white" stroke-width="0.5"/>
<path d="M136.64 135.013C137.182 132.573 139.08 127.856 142.333 128.507L143.96 128.507C145.587 129.049 149.165 131.435 150.467 136.64" stroke="white" stroke-width="0.5"/>
<path d="M130.133 117.933L132.573 116.307L138.267 115.493L144.773 116.307L147.213 117.933" stroke="white" stroke-width="0.5"/>
<path d="M148.84 113.053H148.027" stroke="white" stroke-width="0.5"/>
<path d="M215.533 101.667L217.973 84.5866L221.227 82.96L226.107 108.173" stroke="white" stroke-opacity="0.2" stroke-width="0.5"/>
</svg>
