<svg width="114" height="148" xmlns="http://www.w3.org/2000/svg" fill="none">

 <g>
  <title>Layer 1</title>
  <path id="svg_1" stroke-width="0.5" stroke="white" d="m101.103,107.61l4.88,0.813l1.627,1.627l0.813,0"/>
  <path id="svg_2" stroke-width="0.5" stroke="white" d="m97.85,105.17l2.44,0l6.507,0.813l1.626,1.627"/>
  <path id="svg_3" stroke-width="0.5" stroke="white" d="m62.877,56.3701l-0.814,5.6932c-0.813,-1.8977 -2.765,-7.4826 -4.066,-8.1332c-1.302,-0.6507 -3.254,3.7955 -4.067,6.5066c-0.813,-2.7111 -2.765,-7.1573 -4.067,-6.5066c-1.301,0.6506 -3.253,6.2355 -4.066,8.9466c0.271,-1.6267 0.488,-5.0427 -0.814,-5.6933"/>
  <path id="svg_4" stroke-width="0.5" stroke="white" d="m8.383,101.103l2.44,-1.626l5.927,-0.697l6.273,0.697l2.207,1.51"/>
  <path id="svg_5" stroke-width="0.5" stroke="white" d="m5.13,117.37c0.175,-1.404 0.328,-3.648 0.061,-4.88m-0.874,-0.813c0.459,-0.23 0.729,0.141 0.874,0.813m0,0c0.793,-1.356 2.867,-3.904 4.819,-3.253c2.169,0 6.181,1.301 4.88,6.506"/>
  <path id="svg_6" stroke-width="0.5" stroke="white" d="m6.757,93.377l2.44,-0.814l7.32,-0.406l7.32,0.406l2.44,1.22"/>
  <path id="svg_7" stroke-width="0.5" stroke="white" d="m35.223,115.743c0.814,-1.084 4.718,-2.765 13.827,-0.813"/>
  <path id="svg_8" stroke-width="0.5" stroke="white" d="m49.863,123.063l4.067,-0.813l11.387,1.627"/>
  <path id="svg_9" stroke-width="0.5" stroke="white" d="m32.783,130.383c2.983,-1.626 11.062,-3.904 19.52,0"/>
  <path id="svg_10" stroke-width="0.5" stroke="white" d="m35.223,123.877c1.356,-1.085 6.182,-2.766 14.64,-0.814"/>
  <path id="svg_11" stroke-width="0.5" stroke="white" d="m32.783,122.25l-1.626,3.253l0,14.64"/>
  <path id="svg_12" stroke-width="0.5" stroke="white" d="m0.25,119.81l4.067,-2.44l11.386,-1.627l13.014,1.627l4.066,2.44"/>
  <path id="svg_13" stroke-width="0.5" stroke="white" d="m54.743,110.05l1.627,0l8.947,0.813"/>
  <path id="svg_14" stroke-width="0.5" stroke="white" d="m49.05,89.717l4.88,-0.814l8.133,0.814"/>
  <path id="svg_15" stroke-width="0.5" stroke="white" d="m67.757,96.223l4.066,-2.44l7.32,-0.813l7.32,0.813l2.44,2.44"/>
  <path id="svg_16" stroke-width="0.5" stroke="white" d="m67.757,109.237l1.626,2.44c0.814,-1.356 2.928,-4.067 4.88,-4.067c2.44,0 3.254,0 5.694,2.44c0.813,-1.084 2.928,-3.253 4.88,-3.253c2.44,0 4.066,2.44 4.066,3.253c0,0.651 0.543,-0.271 0.814,-0.813"/>
  <path id="svg_17" stroke-width="0.5" stroke="white" d="m64.503,120.623l2.44,-0.813l3.254,-0.813l4.88,-0.814l4.88,-0.813l4.88,0.813l4.88,0.814l1.626,0.813l1.627,0.813"/>
  <path id="svg_18" stroke-width="0.5" stroke="white" d="m101.917,126.317l0.813,2.44l0.813,1.626l1.627,0c0.542,0.543 1.464,2.115 0.813,4.067l0.814,1.627l0,2.44l0.813,2.44l0,0.813l3.059,0.765l0.194,0.048"/>
  <path id="svg_19" stroke-width="0.5" stroke="white" d="m63.69,116.557l4.88,-2.44l11.387,-0.814l9.76,0.814l4.88,2.44"/>
  <path id="svg_20" stroke-width="0.5" stroke="white" d="m50.677,26.2767c1.084,-0.8134 3.904,-1.952 6.506,0"/>
  <path id="svg_21" stroke-width="0.5" stroke="white" d="m107.61,113.303l-0.813,0.814l0,4.066l0.813,4.88l1.627,0c0.542,0.271 1.464,1.464 0.813,4.067l0,1.627l1.627,0.813l-0.814,0.813l-0.813,3.254l0.813,6.506l0,3.254l3.254,0.813c-1.356,0.542 -3.742,1.952 -2.44,3.253"/>
  <path id="svg_22" stroke-width="0.5" stroke-opacity="0.2" stroke="white" d="m78.33,42.5434l9.76,30.9066"/>
  <path id="svg_23" stroke-width="0.5" stroke="white" d="m50.677,35.2234c0.271,-0.5423 1.138,-1.6267 2.44,-1.6267c1.626,0 3.253,0 4.066,1.6267"/>
  <path id="svg_24" stroke-width="0.5" stroke="white" d="m42.543,62.8767l6.507,0l4.067,-1.6267l5.693,1.6267l6.507,0l1.626,2.44"/>
  <path id="svg_25" stroke-width="0.5" stroke="white" d="m89.717,109.237c0.271,-0.814 1.138,-1.952 2.44,0c1.301,1.952 1.626,4.609 1.626,5.693l0,0.813l0.814,0.814l-1.627,1.626l0.813,19.52l2.44,2.44l-1.626,2.44l0,1.627l0.813,0.813l-0.813,1.627"/>
  <path id="svg_26" stroke-width="0.5" stroke="white" d="m36.85,98.663l-0.813,-0.813l-2.44,-1.627l1.626,-1.626l0,-1.627l1.627,0l0.813,-2.44l0,-3.253l0.814,-4.067l0,-2.44l0.813,-4.0666l0,-2.44l0.813,-0.8134l0,0.8134l0,-4.0667l-0.813,-0.8133l-1.627,-0.8134l4.067,-2.44c0,-0.8133 0.163,-2.6026 0.813,-3.2533c0.651,-0.6507 1.356,-4.0667 1.627,-5.6933l0.813,0l5.694,-20.3334l0,-1.6266l-1.627,-0.8134l0.813,-2.44l0.814,-0.8133l0,-4.88l-1.627,-1.6267l0,-0.8133c-0.813,-0.5422 -2.115,-2.44 -0.813,-5.6933c1.301,-1.952 2.169,-2.44 2.44,-2.44l1.626,-2.44l0.814,-3.2534l-0.814,-0.8133l0,-0.8133l0.814,-0.8134m0,0l0,-5.6933m0,5.6933c0.271,0 2.44,0.8134 0.813,2.44l0,3.2534l0.813,1.6266l1.627,0.8134l1.627,1.6266l0.813,1.6267l0,3.2533l-0.813,1.6267l-0.814,2.44l0,4.88l0.814,2.44l-0.814,0.8133l0,2.44l5.694,19.52l1.626,0l1.627,6.5067l0.813,2.44l3.254,2.44l-1.627,1.6267l0,3.2533m-15.453,-70.76l-0.814,0.8133m0.814,-0.8133l0,-1.6267m0,1.6267l0.813,-0.8133"/>
  <path id="svg_27" stroke-width="0.5" stroke="white" d="m0.25,119.81l0.813,-1.627l0.814,0l0,-4.88c0,-0.542 0.162,-1.626 0.813,-1.626c0.651,0 0.813,0 0.813,0l1.627,0c0,-1.356 0.163,-3.904 0.813,-3.254c0.651,0.651 1.356,-0.813 1.627,-1.626l0.813,0l0.814,0l0,-4.88c-0.271,-0.271 -0.814,-1.302 -0.814,-3.254c0,-1.952 0,-1.897 0,-1.626l-0.813,-0.814l-0.813,-1.626l0.813,-0.814c-1.356,-1.355 -3.579,-5.205 -1.627,-9.76c1.952,-4.5543 5.694,-8.4041 7.32,-9.7596c0.543,-0.5422 1.79,-2.2773 2.44,-4.88c0.651,-2.6027 0.271,-2.7111 0,-2.44c-0.542,-0.2711 -1.301,-1.1387 0,-2.44c0.401,-0.401 0.658,-0.6579 0.814,-0.8134m0,0l0,-4.0667m0,4.0667c0.349,-0.3491 0.187,-0.1875 0,0zm0,0c0.542,0.2711 1.626,0.976 1.626,1.6266c0,0.6507 -0.542,1.3557 -0.813,1.6268l0,2.4399c0.542,1.6267 2.277,5.5307 4.88,8.1333c2.603,2.6027 4.338,4.8804 4.88,5.6934c1.084,2.169 2.603,7.32 0,10.573c-2.603,3.254 -2.169,9.489 -1.627,12.2l5.694,5.694l1.626,7.32l-0.813,2.44l0.813,0.813l2.44,-0.813l0,-5.694c-1.084,-1.355 -3.416,-4.392 -4.066,-5.693c-0.651,-1.301 -0.271,-4.338 0,-5.693c0.542,-1.356 2.44,-4.392 5.693,-5.694c3.253,-1.301 4.609,-5.964 4.88,-8.133l0,-3.253c-0.542,-0.271 -1.301,-0.976 0,-1.627c0.468,-0.234 0.67,-0.686 0.711,-1.219c0.072,-0.948 0.102,-2.034 0.102,-2.848l0,3.254c0.043,0.523 0.166,0.858 0.814,1.626l0,0.814l0,0.813l0,2.44l2.44,6.507l5.693,3.253l3.253,4.88l0,4.067c-0.271,1.084 -1.464,3.416 -4.066,4.066c-3.254,0.814 -0.814,7.32 -0.814,9.76"/>
  <path id="svg_28" stroke-width="0.5" stroke="white" d="m49.863,123.063l0.814,1.627c1.084,1.085 2.928,3.741 1.626,5.693c-0.813,0.814 0.814,-0.813 0.814,4.067c0,3.904 7.591,4.338 11.386,4.067l0.814,-14.64l0,-1.627l-0.814,-1.627l0,-2.44l-0.813,-1.626l0.813,-0.814c0,-2.44 0.488,-7.157 2.44,-6.506c1.952,0.65 1.356,-8.405 0.814,-13.014l-1.627,-2.44c-1.627,-0.813 -4.717,-3.253 -4.067,-6.506c0,-3.254 1.085,-6.778 1.627,-8.1336c0,-0.8133 0.813,-3.0907 4.067,-5.6933c3.253,-2.6027 5.151,-4.3378 5.693,-4.88c0.542,-1.0845 1.627,-3.7414 1.627,-5.6934c0,-1.952 0.542,-4.6089 0.813,-5.6933c-0.542,-0.2711 -1.464,-1.1387 -0.813,-2.44c0.65,-1.3013 1.355,-1.0844 1.626,-0.8133m0,0l0,-9.7601m0,9.7601c0.543,0 1.627,0.1626 1.627,0.8133c0,0.6506 0,1.3555 0,1.6266l-0.813,0.8134c0.271,1.6267 1.138,5.5306 2.44,8.1333c1.301,2.6027 4.337,4.88 5.693,5.6933c0.813,0.5422 3.253,2.7654 6.507,7.32c3.253,4.555 2.44,9.489 1.626,11.387c-0.542,0.813 -1.952,2.602 -3.253,3.253c-1.301,0.651 -1.627,2.982 -1.627,4.067l0,8.133l0.814,3.253c1.897,-1.355 5.693,-4.554 5.693,-6.506c0,-1.952 0,-1.898 0,-1.627c-0.813,-0.271 -1.952,-1.139 0,-2.44m-18.707,-53.68l-1.626,1.6267m1.626,-1.6267l0,-1.6266m0,1.6266l1.627,-1.6266m17.08,55.3066c0.235,-0.157 0,-4.067 0,-5.693m0,5.693c0.542,0 1.627,0.163 1.627,0.813c0,0.651 -0.543,1.356 -0.814,1.627l0,1.627l1.627,3.253c0.542,0.813 2.115,2.603 4.067,3.253c1.952,0.651 2.982,3.525 3.253,4.88c-0.271,1.356 -1.139,4.067 -2.44,4.067c-1.301,0 -1.084,5.964 -0.813,8.947m-6.507,-34.16l-0.813,0.813m0.813,-0.813l0,-1.627m0,1.627l1.627,-0.814"/>
  <path id="svg_29" stroke-width="0.5" stroke-opacity="0.2" stroke="white" d="m69.383,66.9433l5.694,-21.1466"/>
  <path id="svg_30" stroke-width="0.5" stroke="white" d="m94.597,87.277c0.271,-0.271 1.138,-1.464 2.44,-4.067c1.301,-2.6026 1.084,-5.9644 0.813,-7.3199l-0.813,-0.8134l0,-1.6266l0.813,-0.8134m0,0l0,-8.1333m0,8.1333l0.813,0l0.814,0.8134l0,0.8133l0,0.8133l0,3.2534l0.813,4.0669c1.084,2.169 3.741,6.832 5.693,8.133c1.952,1.301 4.067,3.796 4.88,4.88c0.814,0.542 2.278,2.277 1.627,4.88c-0.813,3.253 0,4.067 -4.067,7.32l0,2.44c-0.271,0 -0.813,0.651 -0.813,3.253m-9.76,-48.7996l-1.627,0.8133m1.627,-0.8133l1.627,-0.8133m-1.627,0.8133l0,-1.6267"/>
  <path id="svg_31" stroke-width="0.5" stroke="white" d="m64.503,138.517l4.067,0l11.387,-1.627l11.386,0.813l4.88,2.44"/>
  <path id="svg_32" stroke-width="0.5" stroke="white" d="m66.13,93.783l4.067,-3.253l8.133,-0.813l8.947,0.813l3.253,2.44"/>
  <path id="svg_33" stroke-width="0.5" stroke="white" d="m94.597,143.397l19.52,0.813"/>
  <path id="svg_34" stroke-width="0.5" stroke="white" d="m70.197,138.517l4.88,-20.334l4.88,17.894l4.88,-17.08l4.88,18.706l1.626,-17.893l2.44,17.893"/>
  <path id="svg_35" stroke-width="0.5" stroke="white" d="m70.197,138.517l-3.254,-18.707l-2.44,18.707"/>
  <path id="svg_36" stroke-width="0.5" stroke="white" d="m67.757,101.103l4.066,-2.169l7.32,-1.084l7.32,1.084l2.44,2.169"/>
  <path id="svg_37" stroke-width="0.5" stroke="white" d="m36.85,92.97l1.627,-1.627l3.253,0m1.627,0l5.693,-1.626"/>
  <path id="svg_38" stroke-width="0.5" stroke="white" d="m0.25,119.81l0.813,0.813l0.814,0.814l0,2.44l0.813,1.626l0.813,2.44l0,5.694l0,9.76"/>
  <path id="svg_39" stroke-width="0.5" stroke="white" d="m35.223,121.437l0,2.44c-0.813,0.542 -2.44,1.952 -2.44,3.253c0,1.301 0,8.676 0,12.2"/>
  <path id="svg_40" stroke-width="0.5" stroke="white" d="m14.89,115.743c0.542,-2.44 2.44,-7.157 5.693,-6.506l1.627,0c1.627,0.542 5.205,2.928 6.507,8.133"/>
  <path id="svg_41" stroke-width="0.5" stroke="white" d="m8.383,98.663l2.44,-1.626l5.694,-0.814l6.506,0.814l2.44,1.626"/>
  <path id="svg_42" stroke-width="0.5" stroke="white" d="m27.09,93.783l-0.813,0"/>
  <path id="svg_43" stroke-width="0.5" stroke-opacity="0.2" stroke="white" d="m93.783,82.397l2.44,-17.0804l3.254,-1.6266l4.88,25.213"/>
 </g>
</svg>